<svg id="Capa_1" data-name="Capa 1" xmlns="http://www.w3.org/2000/svg" width="150" height="60.79" viewBox="0 0 150 60.79"><rect y="16.27" width="150" height="24.43" style="fill:#fff"/><rect y="44.11" width="150" height="16.71" style="fill:#fff"/><rect y="-0.03" width="32.51" height="12.84" style="fill:#fff"/><path d="M141.35,35.69a8.94,8.94,0,0,0,3.5-.62A4.86,4.86,0,0,0,147,33.41a4,4,0,0,0,.74-2.34,3.27,3.27,0,0,0-.81-2.35,4.89,4.89,0,0,0-1.87-1.25,18.84,18.84,0,0,0-2.64-.68,12,12,0,0,1-1.75-.44c-.35-.14-.53-.34-.53-.63,0-.57.59-.85,1.78-.85a8.59,8.59,0,0,1,3.82,1l1.39-3.35a8.8,8.8,0,0,0-2.41-.89,12.87,12.87,0,0,0-2.78-.3,8.87,8.87,0,0,0-3.49.6,4.83,4.83,0,0,0-2.16,1.66,4.14,4.14,0,0,0-.73,2.36,3.37,3.37,0,0,0,.78,2.35,4.38,4.38,0,0,0,1.84,1.25,19.1,19.1,0,0,0,2.64.71,13.27,13.27,0,0,1,1.76.46c.36.15.54.36.54.65a.61.61,0,0,1-.41.55,3.73,3.73,0,0,1-1.38.18,8.53,8.53,0,0,1-2.33-.34,10.36,10.36,0,0,1-2.2-.91l-1.49,3.37a9,9,0,0,0,2.65,1,12.92,12.92,0,0,0,3.39.43m-12.87,0a8.86,8.86,0,0,0,3.49-.62,4.83,4.83,0,0,0,2.16-1.66,4.05,4.05,0,0,0,.73-2.34,3.31,3.31,0,0,0-.8-2.35,5,5,0,0,0-1.87-1.25,19.6,19.6,0,0,0-2.64-.68,11.63,11.63,0,0,1-1.75-.44c-.36-.14-.54-.34-.54-.63,0-.57.59-.85,1.79-.85a8.55,8.55,0,0,1,3.81,1l1.39-3.35a8.61,8.61,0,0,0-2.4-.89,12.94,12.94,0,0,0-2.78-.3,8.89,8.89,0,0,0-3.5.6,4.89,4.89,0,0,0-2.16,1.66,4.14,4.14,0,0,0-.73,2.36,3.37,3.37,0,0,0,.79,2.35,4.35,4.35,0,0,0,1.83,1.25,19.92,19.92,0,0,0,2.64.71,14,14,0,0,1,1.77.46c.35.15.53.36.53.65a.6.6,0,0,1-.41.55,3.7,3.7,0,0,1-1.37.18,8.6,8.6,0,0,1-2.34-.34,10.27,10.27,0,0,1-2.19-.91l-1.5,3.37a9.06,9.06,0,0,0,2.66,1,12.76,12.76,0,0,0,3.39.43M113.94,32a2.94,2.94,0,0,1-2.65-1.63,4.22,4.22,0,0,1,0-3.63,3,3,0,0,1,4.21-1.2,3,3,0,0,1,1.1,1.2,4.22,4.22,0,0,1,0,3.63,3,3,0,0,1-1.1,1.2,2.82,2.82,0,0,1-1.56.43m0,3.74a8.29,8.29,0,0,0,4-.93,6.74,6.74,0,0,0,2.76-2.55,7.31,7.31,0,0,0,0-7.38,6.8,6.8,0,0,0-2.76-2.55,8.65,8.65,0,0,0-4-.93,8.34,8.34,0,0,0-4,.93,6.83,6.83,0,0,0-2.77,2.55,7.37,7.37,0,0,0,0,7.38A6.76,6.76,0,0,0,110,34.76a8.22,8.22,0,0,0,4,.93m-15-3.55H96.15V30h2.78c1,0,1.53.35,1.53,1.07s-.51,1.08-1.53,1.08m-.62-7.24c1,0,1.51.34,1.51,1s-.5,1-1.51,1H96.15v-2Zm4.26,3.32A3.59,3.59,0,0,0,104,27a3.14,3.14,0,0,0,.49-1.73,3,3,0,0,0-1.41-2.6,7.17,7.17,0,0,0-4.14-1H91.6V35.39h7.72a7.82,7.82,0,0,0,4.32-1,3.16,3.16,0,0,0,1.5-2.8,3.41,3.41,0,0,0-.66-2.09,4.36,4.36,0,0,0-1.91-1.28M75.34,29.66l1.34-3.44L78,29.66Zm4.85,5.73H85L79,21.68H74.43l-6,13.71h4.71L74.07,33h5.21Zm-22.13,0h5.35L57.65,27.7l5.49-6h-5l-4.51,5v-5H49.05V35.37H53.6V32l1-1.16Zm-16.49.3A8.45,8.45,0,0,0,45.13,35a6.56,6.56,0,0,0,2.59-2l-2.93-2.61a3.75,3.75,0,0,1-3,1.61A3.08,3.08,0,0,1,39.46,31a3.45,3.45,0,0,1-.87-2.5A3.44,3.44,0,0,1,39.46,26a3,3,0,0,1,2.34-.93,3.71,3.71,0,0,1,3,1.6l2.93-2.6a6.48,6.48,0,0,0-2.59-2,8.6,8.6,0,0,0-3.56-.72,8.46,8.46,0,0,0-3.93.91,6.92,6.92,0,0,0-2.73,2.55,7.45,7.45,0,0,0,0,7.42,6.78,6.78,0,0,0,2.73,2.55,8.34,8.34,0,0,0,3.93.91m-17.28-6,1.33-3.44L27,29.66Zm4.85,5.73h4.78l-6-13.71H23.38l-6,13.71h4.7L23,33h5.21ZM12,21.66v4.87H7.74V21.66H3.12V35.37H7.74V30.31H12v5.06h4.62V21.66Z"/><path d="M141.76,49.28v2l3.51,1.2-3.51,1.19v2l5.9-2.14V51.4Zm-7.52,7.22H137v-6h2.37V48.41h-7.47v2.12h2.37v6Zm-5.85-8.09v3.67l-3.09-3.67h-2.24V56.5h2.65V52.83l3.09,3.67H131V48.41Zm-10.54,6V53.36h3.42v-2h-3.42v-.94h3.9V48.41h-6.58V56.5h6.75v-2h-4.07Zm-9.93,2.07h6.38V54.38h-3.65v-6h-2.73Zm-6.24-3.39.78-2,.79,2Zm2.87,3.39h2.81l-3.53-8.09h-2.67L97.61,56.5h2.78l.54-1.41H104ZM93,56.5H95.7v-6h2.37V48.41H90.6v2.12H93Zm-9.25-5a.83.83,0,0,1-.29.7,1.21,1.21,0,0,1-.83.25h-1V50.51h1a1.25,1.25,0,0,1,.83.25.83.83,0,0,1,.29.69m0,5h2.9L85,54a2.72,2.72,0,0,0,1.14-1,2.8,2.8,0,0,0,.39-1.52A2.92,2.92,0,0,0,86,49.83a3,3,0,0,0-1.29-1.07,4.73,4.73,0,0,0-2-.37h-3.9V56.5h2.73v-2h.74Zm-10.17.18a4.06,4.06,0,0,0,2.91-1,3.71,3.71,0,0,0,1-2.82V48.41H74.84v4.36a2.17,2.17,0,0,1-.32,1.31,1.26,1.26,0,0,1-1.86,0,2.13,2.13,0,0,1-.32-1.31V48.41H69.61v4.45a3.68,3.68,0,0,0,1,2.82,4.17,4.17,0,0,0,2.92,1M64,54.47a1.81,1.81,0,0,1-.92-.25,1.69,1.69,0,0,1-.66-.71,2.28,2.28,0,0,1-.25-1.07,2.25,2.25,0,0,1,.25-1.07,1.74,1.74,0,0,1,1.58-1,1.85,1.85,0,0,1,.93.25,1.66,1.66,0,0,1,.66.72,2.25,2.25,0,0,1,.25,1.07,2.28,2.28,0,0,1-.25,1.07,1.8,1.8,0,0,1-.66.71,1.85,1.85,0,0,1-.93.25m0,2.21a5.06,5.06,0,0,0,2.36-.54A4,4,0,0,0,68,54.63a4.3,4.3,0,0,0,0-4.35,4.39,4.39,0,0,0-1.62-1.52A4.89,4.89,0,0,0,64,48.23a5.17,5.17,0,0,0-2.35.53,4.23,4.23,0,0,0-1.62,5.87,4.21,4.21,0,0,0,1.62,1.51,5.05,5.05,0,0,0,2.35.54m-4.37-8.27H57l-1.66,2.8-1.66-2.8H50.82l3,5.11v3H56.6V53.56ZM43,54.43V53.36h3.43v-2H43v-.94H46.9V48.41H40.32V56.5h6.74v-2H43Zm-9.61-.07V50.53h1.14a2,2,0,0,1,1.41.5,1.83,1.83,0,0,1,.54,1.41,1.79,1.79,0,0,1-.54,1.4,2,2,0,0,1-1.41.5H33.38ZM30.65,56.5h4A5.35,5.35,0,0,0,37,56a3.61,3.61,0,0,0,1.6-1.41,3.94,3.94,0,0,0,.57-2.15,4,4,0,0,0-.57-2.16A3.74,3.74,0,0,0,37,48.87a5.64,5.64,0,0,0-2.39-.5h-4Zm-5.69-2a1.84,1.84,0,0,1-.92-.25,1.57,1.57,0,0,1-.66-.71,2.28,2.28,0,0,1-.25-1.07,2.25,2.25,0,0,1,.25-1.07,1.77,1.77,0,0,1,.66-.72A1.79,1.79,0,0,1,25,50.4a1.85,1.85,0,0,1,.93.25,1.66,1.66,0,0,1,.66.72,2.25,2.25,0,0,1,.25,1.07,2.28,2.28,0,0,1-.25,1.07,1.8,1.8,0,0,1-.66.71,1.85,1.85,0,0,1-.93.25m0,2.21a5.06,5.06,0,0,0,2.36-.54,4,4,0,0,0,1.62-1.51,4.3,4.3,0,0,0,0-4.35,4.31,4.31,0,0,0-1.62-1.52,5.5,5.5,0,0,0-4.71,0A4.23,4.23,0,0,0,21,54.63a4.21,4.21,0,0,0,1.62,1.51,5.05,5.05,0,0,0,2.35.54m-8.59,0a5.21,5.21,0,0,0,2.1-.41A4.07,4.07,0,0,0,20,55.07l-1.73-1.53a2.22,2.22,0,0,1-1.77,1,1.74,1.74,0,0,1-1.37-.56,2.08,2.08,0,0,1-.52-1.48A2.12,2.12,0,0,1,15.14,51a1.77,1.77,0,0,1,1.37-.55,2.22,2.22,0,0,1,1.77.95L20,49.83a3.71,3.71,0,0,0-1.54-1.19,4.89,4.89,0,0,0-2.1-.41,5.08,5.08,0,0,0-2.32.53,3.87,3.87,0,0,0-1.6,1.5,4,4,0,0,0-.59,2.19,4.1,4.1,0,0,0,.59,2.2,4,4,0,0,0,1.6,1.49,4.9,4.9,0,0,0,2.32.54m-7.22-7.4-5.9,2.14v2l5.9,2.14v-2l-3.52-1.2,3.52-1.19Z"/><path d="M25.16,4.13V5.56l2.53.87-2.53.86V8.71l4.26-1.55V5.68Zm-1,0L19.9,5.68V7.16l4.26,1.55V7.29l-2.53-.88,2.53-.87Zm-8.81,6H17l2.76-7.86H18.12Zm-4.47-6V5.56l2.53.87-2.53.86V8.71l4.26-1.55V5.68ZM6.44,7H5.62l.12-1.06h.82ZM9.06,5.89V4.65H8l.14-1.14H6.85L6.7,4.65H5.88L6,3.51H4.69L4.55,4.65H3.37V5.89h1L4.26,7H3.08V8.2h1L4,9.34H5.31L5.46,8.2h.82L6.13,9.34H7.47L7.61,8.2H8.79V7h-1L7.9,5.89Z"/></svg>